# xmcd
#
# Track frame offsets:
#	150
#	15500
#	30652
#	45242
#	58856
#	72883
#	87886
#	103085
#
# Disc length: 1570 seconds
#
# Revision: 1
# Processed by: cddbd v1.5.2PL0 Copyright (c) Steve Scherf et al.
# Submitted via: EasyCDDAExtractor 16.0.9.1
#
DISCID=5c062008
DTITLE=길정화 - 4th
DYEAR=2015
DGENRE=
TTITLE0=이 노래 주인공은 너
TTITLE1=당신의 여자
TTITLE2=딱이야
TTITLE3=찬스
TTITLE4=반갑습니다
TTITLE5=휘파람
TTITLE6=이 노래 주인공은 너 MR
TTITLE7=휘파람 MR
EXTD=
EXTT0=
EXTT1=
EXTT2=
EXTT3=
EXTT4=
EXTT5=
EXTT6=
EXTT7=
PLAYORDER=
